HIERARCHY
ROOT root
{
	OFFSET	0	13.1	24.9
	CHANNELS 6  Xposition Yposition Zposition Xrotation Yrotation Zrotation
	JOINT spine_1
	{
		OFFSET	0	9.99999	0
		CHANNELS 3  Xrotation Yrotation Zrotation
		JOINT spine_2
		{
			OFFSET	0	112	-10
			CHANNELS 3  Xrotation Yrotation Zrotation
			JOINT spine_3
			{
				OFFSET	0	206.5	19.3
				CHANNELS 3  Xrotation Yrotation Zrotation
				JOINT spine_4
				{
					OFFSET	0	110.4	14.6
					CHANNELS 3  Xrotation Yrotation Zrotation
					JOINT neck_1
					{
						OFFSET	0	71.8	-50.3
						CHANNELS 3  Xrotation Yrotation Zrotation
						JOINT neck_2
						{
							OFFSET	0	86.2	-25.8
							CHANNELS 3  Xrotation Yrotation Zrotation
							JOINT head_ee
							{
								OFFSET	0	179.8	-8.7
								CHANNELS 3  Xrotation Yrotation Zrotation
								End Site
								{
									OFFSET	1	0	0
								}
							}
						}
					}
					JOINT left_clavicle
					{
						OFFSET	-43.2	22.4	-70.8
						CHANNELS 3  Xrotation Yrotation Zrotation
						JOINT left_shoulder
						{
							OFFSET	-93.9	-5.79999	48.7
							CHANNELS 3  Xrotation Yrotation Zrotation
							JOINT left_elbow
							{
								OFFSET	-291.4	-30.8	15.2
								CHANNELS 3  Xrotation Yrotation Zrotation
								JOINT left_lowarm_twist
								{
									OFFSET	-110.7	-3.89999	13.6
									CHANNELS 3  Xrotation Yrotation Zrotation
									JOINT left_hand
									{
										OFFSET	-110.7	-3.89999	13.6
										CHANNELS 3  Xrotation Yrotation Zrotation
										JOINT left_ee
										{
											OFFSET	-80.8	-5.10001	12.1
											CHANNELS 3  Xrotation Yrotation Zrotation
											End Site
											{
												OFFSET	1	0	0
											}
										}
									}
								}
							}
						}
					}
					JOINT right_clavicle
					{
						OFFSET	43.2	22.4	-70.8
						CHANNELS 3  Xrotation Yrotation Zrotation
						JOINT right_shoulder
						{
							OFFSET	93.9	-5.79999	48.7
							CHANNELS 3  Xrotation Yrotation Zrotation
							JOINT right_elbow
							{
								OFFSET	291.4	-30.8	15.2
								CHANNELS 3  Xrotation Yrotation Zrotation
								JOINT right_lowarm_twist
								{
									OFFSET	110.7	-3.89999	13.6
									CHANNELS 3  Xrotation Yrotation Zrotation
									JOINT right_hand
									{
										OFFSET	110.7	-3.89999	13.6
										CHANNELS 3  Xrotation Yrotation Zrotation
										JOINT right_ee
										{
											OFFSET	80.8	-5.10001	12.1
											CHANNELS 3  Xrotation Yrotation Zrotation
											End Site
											{
												OFFSET	1	0	0
											}
										}
									}
								}
							}
						}
					}
				}
			}
		}
	}
	JOINT left_hip
	{
		OFFSET	-82.8	-127.5	0.300001
		CHANNELS 3  Xrotation Yrotation Zrotation
		JOINT left_knee
		{
			OFFSET	-28.2	-396.7	2.2
			CHANNELS 3  Xrotation Yrotation Zrotation
			JOINT left_ankle
			{
				OFFSET	-11.7	-411.3	35.4
				CHANNELS 3  Xrotation Yrotation Zrotation
				JOINT left_toes
				{
					OFFSET	0	-60	-88.6
					CHANNELS 3  Xrotation Yrotation Zrotation
					JOINT left_foot_ee
					{
						OFFSET	-22.5	-16.5	-42.2
						CHANNELS 3  Xrotation Yrotation Zrotation
						End Site
						{
							OFFSET	1	0	0
						}
					}
				}
			}
		}
	}
	JOINT right_hip
	{
		OFFSET	82.8	-127.5	0.300001
		CHANNELS 3  Xrotation Yrotation Zrotation
		JOINT right_knee
		{
			OFFSET	28.2	-396.7	2.2
			CHANNELS 3  Xrotation Yrotation Zrotation
			JOINT right_ankle
			{
				OFFSET	11.7	-411.3	35.4
				CHANNELS 3  Xrotation Yrotation Zrotation
				JOINT right_toes
				{
					OFFSET	0	-60	-88.6
					CHANNELS 3  Xrotation Yrotation Zrotation
					JOINT right_foot_ee
					{
						OFFSET	22.5	-16.5	-42.2
						CHANNELS 3  Xrotation Yrotation Zrotation
						End Site
						{
							OFFSET	1	0	0
						}
					}
				}
			}
		}
	}
}
MOTION
Frames: 14
Frame Time: 0.02
2672.16095559 746.84 -1582.55062178 -51.6069994637 79.620762488 67.3614242743 3.34207 -0.874458 -5.50372 3.35876 -0.523022 -5.54802 3.40268 0.325298 -5.56307 3.35996 -0.555985 -5.54483 3.15348 -5.17808 7.84461 3.69986 -15.6952 8.49577 -0.0 0.0 -0.0 7.48413 9.83283 14.2577 -31.5817 -8.74642 71.1217 0.619665 -17.0647 0.0929682 22.7492 0.23302 -2.87762 0.44089 -9.09811 -0.8872 -0.0 0.0 -0.0 1.38852 2.99872 -2.38733 -3.7808 24.6328 -60.5601 1.06899 27.9026 -0.265572 1.16909 -0.0397225 0.144029 0.762291 11.1893 -0.386638 0.0 0.0 0.0 14.5853 -22.6756 -24.6189 -41.9633 -0.59637 6.27091 36.8449 -13.1196 -4.82052 11.52 -0.0 -0.0 -0.0 0.0 -0.0 16.088 -0.968446 -19.6692 5.31315 0.254967 0.774975 15.1682 -3.35079 2.12026 -3.01641 0.0 0.0 0.0 0.0 0.0 
2664.23779237 750.092 -1580.44530234 -66.5812032487 80.5775918867 82.2693401896 3.29573 -0.87421 -5.55245 3.31272 -0.519688 -5.59664 3.35685 0.340518 -5.61035 3.31337 -0.548385 -5.59391 2.42874 -5.38708 7.7488 2.95595 -15.9683 8.25238 -0.0 0.0 -0.0 7.99769 9.45226 15.2104 -32.1279 -8.40303 70.9537 0.618242 -17.0278 0.0925509 22.9478 0.229995 -2.90282 0.310506 -7.80202 -1.21528 -0.0 0.0 -0.0 2.18053 3.56795 -3.90381 -1.72326 21.3464 -58.961 0.993481 26.2032 -0.231225 -0.500904 0.0179183 -0.06146 0.692086 13.6454 1.14477 0.0 0.0 0.0 17.9348 -24.7588 -22.6111 -41.2861 -0.550612 6.17737 35.2349 -15.3744 -4.73071 10.8675 -0.0 -0.0 -0.0 0.0 -0.0 16.0707 -1.30075 -19.7065 4.80214 0.227326 0.701484 15.5321 -1.23405 2.17513 -2.90465 0.0 0.0 0.0 0.0 0.0 
2655.36545889 749.057 -1577.81749202 -81.4737709164 81.7618208057 96.8747398063 2.99165 -0.986926 -5.44619 3.00791 -0.638908 -5.49773 3.06435 0.235314 -5.52963 3.02227 -0.639593 -5.49766 3.06346 -5.82498 7.72863 3.64386 -16.7183 8.31564 -0.0 0.0 -0.0 7.95691 8.53692 15.19 -32.4965 -9.51493 71.3357 0.634103 -17.4384 0.0972499 23.6146 0.219205 -2.98731 0.396478 -5.60941 0.29589 -0.0 0.0 -0.0 2.37916 4.52915 -4.21845 -0.323073 20.9794 -58.7681 0.948503 25.1666 -0.21173 -1.13646 0.0414259 -0.139215 0.240302 15.2939 4.89222 0.0 0.0 0.0 20.2239 -25.6524 -21.5201 -42.1009 -0.605804 6.28985 36.119 -12.7701 -4.74148 11.1169 -0.0 -0.0 -0.0 0.0 -0.0 15.8794 -1.46518 -19.1239 2.53391 0.11261 0.372477 19.6224 -0.429441 2.70231 -1.43744 0.0 0.0 0.0 0.0 0.0 
2641.67390831 752.335 -1580.92165403 -89.3601804203 82.5308916575 104.634928633 2.56552 -1.00544 -5.33988 2.58113 -0.664118 -5.39282 2.6409 0.233976 -5.42842 2.60035 -0.625001 -5.39748 3.62252 -6.52111 8.30308 4.3435 -18.4113 9.04804 -0.0 0.0 -0.0 7.79575 6.69318 14.9836 -31.6162 -9.84484 72.3805 0.601185 -16.5842 0.0876193 24.5438 0.202529 -3.10483 0.388479 -2.74526 1.44919 -0.0 0.0 -0.0 3.02278 4.24056 -5.52794 0.110832 19.5912 -57.2875 0.942756 25.0328 -0.209292 -1.9174 0.0714919 -0.234398 -0.249272 17.4526 9.10836 0.0 0.0 0.0 23.6515 -26.6659 -20.2029 -42.1676 -0.610395 6.29902 34.8425 -11.637 -4.58745 11.2461 -0.0 -0.0 -0.0 0.0 -0.0 15.2481 -1.74953 -18.7451 0.980599 0.0416198 0.14472 23.7884 -0.271836 3.2096 0.328011 -0.0 -0.0 0.0 0.0 0.0 
2631.42643147 754.423 -1589.35193537 -78.1245413061 81.8046977633 92.8779595218 2.7767 -0.882063 -5.2145 2.79165 -0.548934 -5.25989 2.83844 0.307853 -5.27943 2.79996 -0.528616 -5.26196 4.58562 -7.24562 8.24161 5.4149 -19.5924 9.14461 -0.0 0.0 -0.0 7.45219 5.92736 14.3674 -31.5685 -11.9597 73.8969 0.57132 -15.8025 0.0792906 24.9949 0.193746 -3.16179 0.41402 -0.681849 2.48266 -0.0 0.0 -0.0 3.1018 3.85934 -5.71344 -0.874326 19.0271 -56.0004 1.03162 27.068 -0.248325 -1.1452 0.0417555 -0.140283 -0.338505 20.2967 10.9009 0.0 0.0 0.0 25.071 -28.661 -18.6109 -38.0514 -0.347476 5.72355 36.55 -8.94496 -4.69139 11.5782 -0.0 -0.0 -0.0 0.0 -0.0 14.6455 -1.85833 -18.5128 1.35963 0.0583716 0.200468 25.0719 -2.21608 3.349 0.205857 -0.0 -0.0 0.0 0.0 0.0 
2630.73604837 754.423 -1588.33285851 -80.4793561477 81.8685224837 95.256872311 2.7767 -0.882063 -5.2145 2.79165 -0.548934 -5.25989 2.83844 0.307853 -5.27943 2.79996 -0.528616 -5.26196 4.58562 -7.24562 8.24161 5.4149 -19.5924 9.14461 -0.0 0.0 -0.0 7.45219 5.92736 14.3674 -31.5685 -11.9597 73.8969 0.57132 -15.8025 0.0792906 24.9949 0.193746 -3.16179 0.41402 -0.681849 2.48266 -0.0 0.0 -0.0 3.1018 3.85934 -5.71344 -0.874326 19.0271 -56.0004 1.03162 27.068 -0.248325 -1.1452 0.0417555 -0.140283 -0.338505 20.2967 10.9009 0.0 0.0 0.0 25.071 -28.661 -18.6109 -38.0514 -0.347476 5.72355 36.55 -8.94496 -4.69139 11.5782 -0.0 -0.0 -0.0 0.0 -0.0 14.6455 -1.85833 -18.5128 1.35963 0.0583716 0.200468 25.0719 -2.21608 3.349 0.205857 -0.0 -0.0 0.0 0.0 0.0 
2629.76752107 754.423 -1586.88063679 -83.8738757008 81.9349066059 98.6855625276 2.7767 -0.882063 -5.2145 2.79165 -0.548934 -5.25989 2.83844 0.307853 -5.27943 2.79996 -0.528616 -5.26196 4.58562 -7.24562 8.24161 5.4149 -19.5924 9.14461 -0.0 0.0 -0.0 7.45219 5.92736 14.3674 -31.5685 -11.9597 73.8969 0.57132 -15.8025 0.0792906 24.9949 0.193746 -3.16179 0.41402 -0.681849 2.48266 -0.0 0.0 -0.0 3.1018 3.85934 -5.71344 -0.874326 19.0271 -56.0004 1.03162 27.068 -0.248325 -1.1452 0.0417555 -0.140283 -0.338505 20.2967 10.9009 0.0 0.0 0.0 25.071 -28.661 -18.6109 -38.0514 -0.347476 5.72355 36.55 -8.94496 -4.69139 11.5782 -0.0 -0.0 -0.0 0.0 -0.0 14.6455 -1.85833 -18.5128 1.35963 0.0583716 0.200468 25.0719 -2.21608 3.349 0.205857 -0.0 -0.0 0.0 0.0 0.0 
2627.51813905 754.423 -1583.40070668 -92.063550811 81.976029407 106.956346712 2.7767 -0.882063 -5.2145 2.79165 -0.548934 -5.25989 2.83844 0.307853 -5.27943 2.79996 -0.528616 -5.26196 4.58562 -7.24562 8.24161 5.4149 -19.5924 9.14461 -0.0 0.0 -0.0 7.45219 5.92736 14.3674 -31.5685 -11.9597 73.8969 0.57132 -15.8025 0.0792906 24.9949 0.193746 -3.16179 0.41402 -0.681849 2.48266 -0.0 0.0 -0.0 3.1018 3.85934 -5.71344 -0.874326 19.0271 -56.0004 1.03162 27.068 -0.248325 -1.1452 0.0417555 -0.140283 -0.338505 20.2967 10.9009 0.0 0.0 0.0 25.071 -28.661 -18.6109 -38.0514 -0.347476 5.72355 36.55 -8.94496 -4.69139 11.5782 -0.0 -0.0 -0.0 0.0 -0.0 14.6455 -1.85833 -18.5128 1.35963 0.0583716 0.200468 25.0719 -2.21608 3.349 0.205857 -0.0 -0.0 0.0 0.0 0.0 
2626.40136236 754.423 -1581.61385782 -96.2167967736 81.9335171928 111.150838662 2.7767 -0.882063 -5.2145 2.79165 -0.548934 -5.25989 2.83844 0.307853 -5.27943 2.79996 -0.528616 -5.26196 4.58562 -7.24562 8.24161 5.4149 -19.5924 9.14461 -0.0 0.0 -0.0 7.45219 5.92736 14.3674 -31.5685 -11.9597 73.8969 0.57132 -15.8025 0.0792906 24.9949 0.193746 -3.16179 0.41402 -0.681849 2.48266 -0.0 0.0 -0.0 3.1018 3.85934 -5.71344 -0.874326 19.0271 -56.0004 1.03162 27.068 -0.248325 -1.1452 0.0417555 -0.140283 -0.338505 20.2967 10.9009 0.0 0.0 0.0 25.071 -28.661 -18.6109 -38.0514 -0.347476 5.72355 36.55 -8.94496 -4.69139 11.5782 -0.0 -0.0 -0.0 0.0 -0.0 14.6455 -1.85833 -18.5128 1.35963 0.0583716 0.200468 25.0719 -2.21608 3.349 0.205857 -0.0 -0.0 0.0 0.0 0.0 
2626.47161277 754.423 -1581.72747106 -95.9550045198 81.9374720772 110.886431632 2.7767 -0.882063 -5.2145 2.79165 -0.548934 -5.25989 2.83844 0.307853 -5.27943 2.79996 -0.528616 -5.26196 4.58562 -7.24562 8.24161 5.4149 -19.5924 9.14461 -0.0 0.0 -0.0 7.45219 5.92736 14.3674 -31.5685 -11.9597 73.8969 0.57132 -15.8025 0.0792906 24.9949 0.193746 -3.16179 0.41402 -0.681849 2.48266 -0.0 0.0 -0.0 3.1018 3.85934 -5.71344 -0.874326 19.0271 -56.0004 1.03162 27.068 -0.248325 -1.1452 0.0417555 -0.140283 -0.338505 20.2967 10.9009 0.0 0.0 0.0 25.071 -28.661 -18.6109 -38.0514 -0.347476 5.72355 36.55 -8.94496 -4.69139 11.5782 -0.0 -0.0 -0.0 0.0 -0.0 14.6455 -1.85833 -18.5128 1.35963 0.0583716 0.200468 25.0719 -2.21608 3.349 0.205857 -0.0 -0.0 0.0 0.0 0.0 
2625.65647328 754.423 -1580.39888428 -98.991390869 81.8808368515 113.953330681 2.7767 -0.882063 -5.2145 2.79165 -0.548934 -5.25989 2.83844 0.307853 -5.27943 2.79996 -0.528616 -5.26196 4.58562 -7.24562 8.24161 5.4149 -19.5924 9.14461 -0.0 0.0 -0.0 7.45219 5.92736 14.3674 -31.5685 -11.9597 73.8969 0.57132 -15.8025 0.0792906 24.9949 0.193746 -3.16179 0.41402 -0.681849 2.48266 -0.0 0.0 -0.0 3.1018 3.85934 -5.71344 -0.874326 19.0271 -56.0004 1.03162 27.068 -0.248325 -1.1452 0.0417555 -0.140283 -0.338505 20.2967 10.9009 0.0 0.0 0.0 25.071 -28.661 -18.6109 -38.0514 -0.347476 5.72355 36.55 -8.94496 -4.69139 11.5782 -0.0 -0.0 -0.0 0.0 -0.0 14.6455 -1.85833 -18.5128 1.35963 0.0583716 0.200468 25.0719 -2.21608 3.349 0.205857 -0.0 -0.0 0.0 0.0 0.0 
2623.89854108 754.423 -1577.45392124 -105.474155734 81.6775628804 120.503245503 2.7767 -0.882063 -5.2145 2.79165 -0.548934 -5.25989 2.83844 0.307853 -5.27943 2.79996 -0.528616 -5.26196 4.58562 -7.24562 8.24161 5.4149 -19.5924 9.14461 -0.0 0.0 -0.0 7.45219 5.92736 14.3674 -31.5685 -11.9597 73.8969 0.57132 -15.8025 0.0792906 24.9949 0.193746 -3.16179 0.41402 -0.681849 2.48266 -0.0 0.0 -0.0 3.1018 3.85934 -5.71344 -0.874326 19.0271 -56.0004 1.03162 27.068 -0.248325 -1.1452 0.0417555 -0.140283 -0.338505 20.2967 10.9009 0.0 0.0 0.0 25.071 -28.661 -18.6109 -38.0514 -0.347476 5.72355 36.55 -8.94496 -4.69139 11.5782 -0.0 -0.0 -0.0 0.0 -0.0 14.6455 -1.85833 -18.5128 1.35963 0.0583716 0.200468 25.0719 -2.21608 3.349 0.205857 -0.0 -0.0 0.0 0.0 0.0 
2621.83075366 754.423 -1573.8395337 -112.818238801 81.2953622342 127.92888651 2.7767 -0.882063 -5.2145 2.79165 -0.548934 -5.25989 2.83844 0.307853 -5.27943 2.79996 -0.528616 -5.26196 4.58562 -7.24562 8.24161 5.4149 -19.5924 9.14461 -0.0 0.0 -0.0 7.45219 5.92736 14.3674 -31.5685 -11.9597 73.8969 0.57132 -15.8025 0.0792906 24.9949 0.193746 -3.16179 0.41402 -0.681849 2.48266 -0.0 0.0 -0.0 3.1018 3.85934 -5.71344 -0.874326 19.0271 -56.0004 1.03162 27.068 -0.248325 -1.1452 0.0417555 -0.140283 -0.338505 20.2967 10.9009 0.0 0.0 0.0 25.071 -28.661 -18.6109 -38.0514 -0.347476 5.72355 36.55 -8.94496 -4.69139 11.5782 -0.0 -0.0 -0.0 0.0 -0.0 14.6455 -1.85833 -18.5128 1.35963 0.0583716 0.200468 25.0719 -2.21608 3.349 0.205857 -0.0 -0.0 0.0 0.0 0.0 
2620.22800069 754.423 -1570.91528813 -118.184566296 80.8939774393 133.360561155 2.7767 -0.882063 -5.2145 2.79165 -0.548934 -5.25989 2.83844 0.307853 -5.27943 2.79996 -0.528616 -5.26196 4.58562 -7.24562 8.24161 5.4149 -19.5924 9.14461 -0.0 0.0 -0.0 7.45219 5.92736 14.3674 -31.5685 -11.9597 73.8969 0.57132 -15.8025 0.0792906 24.9949 0.193746 -3.16179 0.41402 -0.681849 2.48266 -0.0 0.0 -0.0 3.1018 3.85934 -5.71344 -0.874326 19.0271 -56.0004 1.03162 27.068 -0.248325 -1.1452 0.0417555 -0.140283 -0.338505 20.2967 10.9009 0.0 0.0 0.0 25.071 -28.661 -18.6109 -38.0514 -0.347476 5.72355 36.55 -8.94496 -4.69139 11.5782 -0.0 -0.0 -0.0 0.0 -0.0 14.6455 -1.85833 -18.5128 1.35963 0.0583716 0.200468 25.0719 -2.21608 3.349 0.205857 -0.0 -0.0 0.0 0.0 0.0 
